<svg width="28" height="33" viewBox="0 0 28 33" fill="none" xmlns="http://www.w3.org/2000/svg">
<path d="M13.6785 33.0001L13.1918 32.7842C12.65 32.5463 0 26.8332 0 16.4877V7.51718C0.000482279 6.65391 0.273327 5.81281 0.77968 5.11364C1.28603 4.41447 2.00008 3.89289 2.82013 3.62318L13.75 5.34058e-05L24.6799 3.62318C25.4999 3.89289 26.214 4.41447 26.7203 5.11364C27.2267 5.81281 27.4995 6.65391 27.5 7.51718V16.4877C27.5 28.2811 14.729 32.6508 14.1845 32.8323L13.6785 33.0001ZM13.75 2.88343L3.6905 6.21918C3.4168 6.30858 3.17841 6.48229 3.00947 6.71545C2.84053 6.94861 2.7497 7.22925 2.75 7.51718V16.4877C2.75 24.0419 11.605 28.9424 13.8146 30.0466C16.0201 29.1597 24.75 25.0993 24.75 16.4877V7.51718C24.7503 7.22925 24.6595 6.94861 24.4905 6.71545C24.3216 6.48229 24.0832 6.30858 23.8095 6.21918L13.75 2.88343Z" fill="black"/>
<path d="M12.5275 19.983H12.4821C12.1341 19.9777 11.7908 19.9019 11.4729 19.7601C11.155 19.6183 10.8692 19.4135 10.6327 19.158L7.46199 15.858L9.44337 13.9578L12.5289 17.1753L19.6527 10.0514L21.597 11.9957L14.3631 19.2295C14.1222 19.4703 13.8359 19.6608 13.5208 19.7902C13.2057 19.9195 12.8681 19.9851 12.5275 19.983Z" fill="black"/>
</svg>
