<svg width="26" height="34" viewBox="0 0 26 34" fill="none" xmlns="http://www.w3.org/2000/svg">
<path d="M26 33.3457H23.1111V26.3389C23.11 25.2496 22.6596 24.2053 21.8588 23.435C21.0581 22.6648 19.9723 22.2316 18.8399 22.2305H7.16011C6.02766 22.2316 4.94193 22.6648 4.14117 23.435C3.34041 24.2053 2.89004 25.2496 2.88889 26.3389V33.3457H0V26.3389C0.00229353 24.513 0.757396 22.7625 2.09968 21.4713C3.44197 20.1802 5.26184 19.4539 7.16011 19.4517H18.8399C20.7382 19.4539 22.558 20.1802 23.9003 21.4713C25.2426 22.7625 25.9977 24.513 26 26.3389V33.3457Z" fill="black"/>
<path d="M12.9997 16.6729C11.2856 16.6729 9.60996 16.1839 8.18474 15.2679C6.75951 14.3519 5.64868 13.0499 4.99272 11.5266C4.33676 10.0034 4.16513 8.32719 4.49954 6.71008C4.83394 5.09297 5.65936 3.60756 6.87142 2.44169C8.08348 1.27582 9.62773 0.481849 11.3089 0.160186C12.9901 -0.161477 14.7326 0.00361206 16.3163 0.634577C17.8999 1.26554 19.2534 2.33404 20.2057 3.70496C21.1581 5.07588 21.6663 6.68764 21.6663 8.33643C21.6641 10.5467 20.7502 12.6658 19.1254 14.2287C17.5006 15.7916 15.2975 16.6707 12.9997 16.6729ZM12.9997 2.77881C11.8569 2.77881 10.7399 3.10476 9.78972 3.71544C8.83957 4.32612 8.09901 5.1941 7.66171 6.20962C7.2244 7.22515 7.10998 8.3426 7.33292 9.42067C7.55586 10.4987 8.10614 11.489 8.91417 12.2663C9.72221 13.0435 10.7517 13.5728 11.8725 13.7873C12.9933 14.0017 14.155 13.8916 15.2107 13.471C16.2665 13.0504 17.1689 12.338 17.8037 11.4241C18.4386 10.5101 18.7775 9.43563 18.7775 8.33643C18.7775 6.86246 18.1687 5.44886 17.0852 4.4066C16.0016 3.36435 14.532 2.77881 12.9997 2.77881Z" fill="black"/>
</svg>
