<svg width="25" height="28" viewBox="0 0 25 28" fill="none" xmlns="http://www.w3.org/2000/svg">
<path d="M16.9844 6.165C15.8624 5.212 14.7024 4.228 13.5384 3.065L12.4704 2L11.4114 3.066C9.82506 4.79859 8.68634 6.89271 8.09437 9.166C8.07937 9.114 8.06537 9.066 8.05137 9.009L7.41737 6.552L5.57037 8.286C3.71537 10.025 2.00137 12.106 2.00037 15.532C1.98086 17.8452 2.7349 20.0985 4.14268 21.9341C5.55046 23.7696 7.53125 25.0821 9.77037 25.663C10.6497 25.886 11.5532 25.9992 12.4604 26C13.836 26.0021 15.1986 25.7329 16.4701 25.2079C17.7417 24.6828 18.8972 23.9122 19.8706 22.9401C20.844 21.968 21.6161 20.8135 22.1429 19.5427C22.6696 18.2719 22.9406 16.9097 22.9404 15.534C22.9404 11.222 20.1794 8.878 16.9844 6.165ZM17.0534 21.426C16.9444 21.51 16.8284 21.58 16.7164 21.658C16.9469 21.1023 17.0659 20.5066 17.0664 19.905C17.0664 17.366 14.7664 16.353 12.4664 14.055C9.95937 16.562 7.86637 17.366 7.86637 19.905C7.87093 20.5421 8.00854 21.1712 8.27037 21.752C7.25797 21.0624 6.43073 20.1343 5.86153 19.0497C5.29233 17.965 4.99865 16.7569 5.00637 15.532C4.98097 14.2863 5.38215 13.0694 6.14337 12.083C6.25237 12.255 6.36737 12.421 6.48937 12.583C6.75074 12.936 7.10959 13.2049 7.52177 13.3566C7.93396 13.5084 8.38151 13.5363 8.80937 13.437C9.24338 13.3401 9.64029 13.1203 9.9526 12.8037C10.2649 12.4871 10.4794 12.0873 10.5704 11.652C10.9239 9.77094 11.6162 7.96972 12.6134 6.336C13.4574 7.112 14.2834 7.813 15.0394 8.456C18.2574 11.187 19.9394 12.743 19.9394 15.534C19.942 16.6716 19.6831 17.7945 19.1827 18.8162C18.6822 19.8378 17.9537 20.7307 17.0534 21.426Z" fill="#183153"/>
</svg>
