<svg width="25" height="28" viewBox="0 0 25 28" fill="none" xmlns="http://www.w3.org/2000/svg">
<g clip-path="url(#clip0_2515_5401)">
<path d="M23.621 11.0548L16.036 3.46883C15.0973 2.53282 13.8257 2.0072 12.5 2.0072C11.1744 2.0072 9.90277 2.53282 8.96401 3.46883L1.37901 11.0548C1.09944 11.3326 0.877782 11.6631 0.726895 12.0272C0.576007 12.3913 0.49889 12.7817 0.500012 13.1758V22.9928C0.500012 23.7885 0.816083 24.5515 1.37869 25.1141C1.9413 25.6768 2.70436 25.9928 3.50001 25.9928H21.5C22.2957 25.9928 23.0587 25.6768 23.6213 25.1141C24.1839 24.5515 24.5 23.7885 24.5 22.9928V13.1758C24.5011 12.7817 24.424 12.3913 24.2731 12.0272C24.1222 11.6631 23.9006 11.3326 23.621 11.0548ZM15.5 23.9928H9.50001V20.0588C9.50001 19.2632 9.81608 18.5001 10.3787 17.9375C10.9413 17.3749 11.7044 17.0588 12.5 17.0588C13.2957 17.0588 14.0587 17.3749 14.6213 17.9375C15.1839 18.5001 15.5 19.2632 15.5 20.0588V23.9928ZM22.5 22.9928C22.5 23.258 22.3947 23.5124 22.2071 23.6999C22.0196 23.8875 21.7652 23.9928 21.5 23.9928H17.5V20.0588C17.5 18.7327 16.9732 17.461 16.0355 16.5233C15.0979 15.5856 13.8261 15.0588 12.5 15.0588C11.1739 15.0588 9.90216 15.5856 8.96448 16.5233C8.0268 17.461 7.50001 18.7327 7.50001 20.0588V23.9928H3.50001C3.2348 23.9928 2.98044 23.8875 2.79291 23.6999C2.60537 23.5124 2.50001 23.258 2.50001 22.9928V13.1758C2.50094 12.9108 2.6062 12.6568 2.79301 12.4688L10.378 4.88583C10.9417 4.32476 11.7047 4.00977 12.5 4.00977C13.2953 4.00977 14.0583 4.32476 14.622 4.88583L22.207 12.4718C22.3931 12.6591 22.4983 12.9118 22.5 13.1758V22.9928Z" fill="url(#paint0_linear_2515_5401)"/>
</g>
<defs>
<linearGradient id="paint0_linear_2515_5401" x1="12.5" y1="2.0072" x2="12.5" y2="25.9928" gradientUnits="userSpaceOnUse">
<stop stop-color="#007AFF"/>
<stop offset="1" stop-color="#007AFF" stop-opacity="0.73"/>
</linearGradient>
<clipPath id="clip0_2515_5401">
<rect width="24" height="27.9856" fill="white" transform="translate(0.5 0.00720215)"/>
</clipPath>
</defs>
</svg>
