<svg width="36" height="31" viewBox="0 0 36 31" fill="none" xmlns="http://www.w3.org/2000/svg">
<path d="M26.2467 0C24.5583 0.0257377 22.9067 0.487649 21.4587 1.33909C20.0108 2.19052 18.8177 3.40134 18 4.84925C17.1823 3.40134 15.9892 2.19052 14.5413 1.33909C13.0933 0.487649 11.4417 0.0257377 9.75333 0C7.06182 0.114605 4.526 1.26853 2.69985 3.20967C0.873698 5.15081 -0.0943261 7.72137 0.00725873 10.3598C0.00725873 17.0415 7.18336 24.3389 13.2019 29.2866C14.5457 30.3933 16.2447 31 18 31C19.7553 31 21.4543 30.3933 22.7981 29.2866C28.8166 24.3389 35.9927 17.0415 35.9927 10.3598C36.0943 7.72137 35.1263 5.15081 33.3002 3.20967C31.474 1.26853 28.9382 0.114605 26.2467 0ZM20.8713 27.0383C20.0676 27.7016 19.0507 28.0653 18 28.0653C16.9493 28.0653 15.9324 27.7016 15.1287 27.0383C7.42477 20.7034 3.00605 14.6256 3.00605 10.3598C2.90355 8.50047 3.55538 6.67688 4.81936 5.28672C6.08335 3.89655 7.85694 3.05261 9.75333 2.93894C11.6497 3.05261 13.4233 3.89655 14.6873 5.28672C15.9513 6.67688 16.6031 8.50047 16.5006 10.3598C16.5006 10.7495 16.6586 11.1233 16.9398 11.3988C17.221 11.6744 17.6023 11.8292 18 11.8292C18.3977 11.8292 18.779 11.6744 19.0602 11.3988C19.3414 11.1233 19.4994 10.7495 19.4994 10.3598C19.3969 8.50047 20.0487 6.67688 21.3127 5.28672C22.5767 3.89655 24.3503 3.05261 26.2467 2.93894C28.1431 3.05261 29.9167 3.89655 31.1806 5.28672C32.4446 6.67688 33.0964 8.50047 32.9939 10.3598C32.9939 14.6256 28.5752 20.7034 20.8713 27.0324V27.0383Z" fill="black"/>
</svg>
