<svg width="26" height="33" viewBox="0 0 26 33" fill="none" xmlns="http://www.w3.org/2000/svg">
<path d="M25.7304 33.0001H22.8715V26.0659C22.8704 24.9879 22.4247 23.9544 21.6322 23.1921C20.8398 22.4299 19.7653 22.0012 18.6446 22.0001H7.08588C5.96517 22.0012 4.89069 22.4299 4.09824 23.1921C3.30578 23.9544 2.86007 24.9879 2.85894 26.0659V33.0001H0V26.0659C0.00226975 24.2589 0.749544 22.5265 2.07791 21.2488C3.40628 19.971 5.20728 19.2522 7.08588 19.2501H18.6446C20.5232 19.2522 22.3242 19.971 23.6525 21.2488C24.9809 22.5265 25.7282 24.2589 25.7304 26.0659V33.0001Z" fill="black"/>
<path d="M12.865 16.5C11.1687 16.5 9.51045 16.0162 8.1 15.1096C6.68955 14.2031 5.59024 12.9146 4.94108 11.4071C4.29192 9.89965 4.12207 8.24085 4.45301 6.64051C4.78395 5.04017 5.60081 3.57016 6.8003 2.41637C7.99979 1.26259 9.52804 0.476853 11.1918 0.158525C12.8555 -0.159803 14.58 0.00357461 16.1472 0.627998C17.7144 1.25242 19.054 2.30984 19.9964 3.66655C20.9388 5.02326 21.4418 6.61831 21.4418 8.25001C21.4396 10.4374 20.5352 12.5345 18.9272 14.0812C17.3193 15.6279 15.139 16.4978 12.865 16.5ZM12.865 2.75C11.7341 2.75 10.6286 3.07257 9.68835 3.67692C8.74805 4.28127 8.01517 5.14025 7.5824 6.14525C7.14963 7.15024 7.03639 8.25611 7.25702 9.323C7.47764 10.3899 8.02222 11.3699 8.82188 12.1391C9.62154 12.9083 10.6404 13.4321 11.7495 13.6443C12.8587 13.8565 14.0084 13.7476 15.0532 13.3313C16.098 12.9151 16.991 12.2101 17.6193 11.3056C18.2476 10.4012 18.5829 9.3378 18.5829 8.25001C18.5829 6.79132 17.9805 5.39237 16.9082 4.36092C15.8359 3.32947 14.3815 2.75 12.865 2.75Z" fill="black"/>
</svg>
