<svg width="27" height="33" viewBox="0 0 27 33" fill="none" xmlns="http://www.w3.org/2000/svg">
<path d="M25.0395 12.6115L20.7849 7.27784C20.3491 6.75029 19.6548 6.76544 19.234 7.31168C18.8234 7.84451 18.8234 8.6893 19.234 9.22213L23.4886 14.5558C23.615 14.7173 23.7254 14.8974 23.8176 15.092C23.8012 15.092 23.788 15.081 23.7716 15.081L6.56887 15.125C5.96312 15.125 5.47206 15.7406 5.47206 16.5C5.47206 17.2594 5.96312 17.875 6.56887 17.875L23.765 17.8309C23.7957 17.8309 23.8209 17.8117 23.8505 17.809C23.7533 18.0416 23.6299 18.2555 23.4842 18.4442L19.2296 23.7778C18.7939 24.3054 18.7818 25.1758 19.2026 25.7221C19.6234 26.2683 20.3178 26.2835 20.7535 25.7559C20.7627 25.7448 20.7717 25.7335 20.7805 25.7221L25.0351 20.3884C26.7479 18.2407 26.7479 14.7592 25.0351 12.6115H25.0395Z" fill="black"/>
<path d="M7.67782 30.25H5.48415C3.66687 30.25 2.19366 28.4032 2.19366 26.125V6.87504C2.19366 4.59688 3.66687 2.75004 5.48415 2.75004H7.67782C8.28358 2.75004 8.77464 2.13444 8.77464 1.37506C8.77464 0.615672 8.28363 1.52588e-05 7.67782 1.52588e-05H5.48415C2.4569 0.00459143 0.00368091 3.07997 3.05176e-05 6.87504V26.1251C0.00368091 29.9201 2.4569 32.9955 5.4842 33H7.67788C8.28363 33 8.77469 32.3844 8.77469 31.625C8.77469 30.8657 8.28363 30.25 7.67782 30.25Z" fill="black"/>
</svg>
