<svg width="32" height="32" viewBox="0 0 32 32" fill="none" xmlns="http://www.w3.org/2000/svg">
<path d="M30.3808 12.5864L25.3146 7.52018C24.7957 7.01907 23.9689 7.03346 23.4678 7.55232C22.979 8.05844 22.979 8.86088 23.4678 9.367L28.5341 14.4333C28.6846 14.5867 28.8161 14.7578 28.9259 14.9426C28.9063 14.9426 28.8906 14.9322 28.871 14.9322L8.38662 14.974C7.6653 14.974 7.08057 15.5587 7.08057 16.28C7.08057 17.0013 7.6653 17.5861 8.38662 17.5861L28.8632 17.5443C28.8998 17.5443 28.9298 17.526 28.9651 17.5234C28.8492 17.7443 28.7023 17.9475 28.5289 18.1268L23.4626 23.193C22.9438 23.6941 22.9294 24.5209 23.4305 25.0398C23.9316 25.5587 24.7584 25.573 25.2772 25.0719C25.2881 25.0614 25.2989 25.0507 25.3094 25.0398L30.3756 19.9735C32.4151 17.9334 32.4151 14.6265 30.3756 12.5864H30.3808Z" fill="black"/>
<path d="M9.70742 29.3407H7.09526C4.9313 29.3407 3.17704 27.5865 3.17704 25.4225V7.13756C3.17704 4.9736 4.9313 3.21934 7.09526 3.21934H9.70742C10.4287 3.21934 11.0135 2.63461 11.0135 1.91329C11.0135 1.19197 10.4288 0.607178 9.70742 0.607178H7.09526C3.4905 0.611525 0.569288 3.53274 0.564941 7.13756V25.4226C0.569288 29.0273 3.4905 31.9486 7.09532 31.9529H9.70748C10.4288 31.9529 11.0135 31.3682 11.0135 30.6468C11.0135 29.9255 10.4288 29.3407 9.70742 29.3407Z" fill="black"/>
</svg>
