<svg width="25" height="32" viewBox="0 0 25 32" fill="none" xmlns="http://www.w3.org/2000/svg">
<path d="M23.7838 11.9793L19.7424 6.913C19.3286 6.4119 18.669 6.42628 18.2693 6.94514C17.8793 7.45126 17.8793 8.2537 18.2693 8.75983L22.3106 13.8261C22.4307 13.9796 22.5356 14.1506 22.6232 14.3354C22.6075 14.3354 22.595 14.325 22.5794 14.325L6.2391 14.3668C5.6637 14.3668 5.19727 14.9515 5.19727 15.6728C5.19727 16.3942 5.6637 16.9789 6.2391 16.9789L22.5732 16.9371C22.6023 16.9371 22.6263 16.9188 22.6544 16.9162C22.562 17.1372 22.4448 17.3403 22.3065 17.5196L18.2651 22.5859C17.8513 23.087 17.8398 23.9138 18.2395 24.4326C18.6392 24.9515 19.2988 24.9659 19.7127 24.4648C19.7214 24.4542 19.7299 24.4435 19.7383 24.4326L23.7796 19.3664C25.4065 17.3263 25.4065 14.0193 23.7796 11.9793H23.7838Z" fill="black"/>
<path d="M7.29291 28.7336H5.2092C3.48302 28.7336 2.08366 26.9793 2.08366 24.8153V6.53038C2.08366 4.36642 3.48302 2.61216 5.2092 2.61216H7.29291C7.8683 2.61216 8.33474 2.02743 8.33474 1.30611C8.33474 0.584794 7.86835 0 7.29291 0H5.2092C2.3337 0.00434677 0.00346739 2.92556 0 6.53038V24.8154C0.00346739 28.4202 2.3337 31.3414 5.20925 31.3457H7.29296C7.86835 31.3457 8.33479 30.761 8.33479 30.0397C8.33479 29.3183 7.86835 28.7336 7.29291 28.7336Z" fill="black"/>
</svg>
