<svg width="25" height="24" viewBox="0 0 25 24" fill="none" xmlns="http://www.w3.org/2000/svg">
<g clip-path="url(#clip0_2658_6481)">
<path d="M23.9887 9.03C23.4187 8.37 22.5887 8 21.7187 8H21.6287C21.1287 3.51 17.3087 0 12.6887 0C8.06874 0 4.23874 3.51 3.73874 8H3.68874C2.81874 8 1.98874 8.38 1.41874 9.03C0.848737 9.69 0.598737 10.56 0.718737 11.42L1.77874 18.84C2.19874 21.78 4.74874 23.99 7.71874 23.99H17.6887C20.6587 23.99 23.2087 21.78 23.6287 18.84L24.6887 11.42C24.8087 10.56 24.5587 9.69 23.9887 9.03ZM12.6887 2C16.2087 2 19.1287 4.61 19.6187 8H5.75874C6.24874 4.61 9.16874 2 12.6887 2ZM22.7087 11.14L21.6487 18.56C21.3687 20.52 19.6687 21.99 17.6887 21.99H7.71874C5.73874 21.99 4.03874 20.51 3.75874 18.56L2.69874 11.14C2.65874 10.85 2.73874 10.57 2.92874 10.34C3.11874 10.12 3.38874 9.99 3.68874 9.99H21.7187C22.0087 9.99 22.2787 10.11 22.4687 10.33C22.6587 10.55 22.7487 10.84 22.6987 11.13L22.7087 11.14Z" fill="url(#paint0_linear_2658_6481)"/>
</g>
<defs>
<linearGradient id="paint0_linear_2658_6481" x1="12.7037" y1="0" x2="12.7037" y2="23.99" gradientUnits="userSpaceOnUse">
<stop stop-color="#007AFF" stop-opacity="0.83"/>
<stop offset="1" stop-color="#007AFF"/>
</linearGradient>
<clipPath id="clip0_2658_6481">
<rect width="24" height="24" fill="white" transform="translate(0.71875)"/>
</clipPath>
</defs>
</svg>
