<svg width="24" height="32" viewBox="0 0 24 32" fill="none" xmlns="http://www.w3.org/2000/svg">
<path d="M23.6299 31.9529H21.0177V25.3664C21.0167 24.3424 20.6095 23.3607 19.8854 22.6367C19.1614 21.9126 18.1797 21.5054 17.1557 21.5044H6.5948C5.57084 21.5054 4.58911 21.9126 3.86506 22.6367C3.14101 23.3607 2.73379 24.3424 2.73275 25.3664V31.9529H0.120605V25.3664C0.122679 23.65 0.805446 22.0044 2.01914 20.7908C3.23284 19.5771 4.87837 18.8943 6.5948 18.8922H17.1557C18.8721 18.8943 20.5177 19.5771 21.7314 20.7908C22.9451 22.0044 23.6278 23.65 23.6299 25.3664V31.9529Z" fill="black"/>
<path d="M11.875 16.28C10.3251 16.28 8.81001 15.8204 7.52132 14.9594C6.23263 14.0983 5.22821 12.8744 4.63509 11.4425C4.04197 10.0106 3.88678 8.43492 4.18915 6.9148C4.49152 5.39468 5.23787 3.99836 6.33382 2.90242C7.42976 1.80647 8.82608 1.06013 10.3462 0.757756C11.8663 0.455386 13.442 0.610573 14.8739 1.20369C16.3058 1.79681 17.5297 2.80123 18.3908 4.08992C19.2518 5.37862 19.7114 6.89371 19.7114 8.44361C19.7094 10.5213 18.8831 12.5133 17.4139 13.9825C15.9447 15.4517 13.9527 16.278 11.875 16.28ZM11.875 3.21932C10.8417 3.21932 9.83168 3.52572 8.97255 4.09978C8.11342 4.67383 7.44381 5.48975 7.0484 6.44436C6.65298 7.39898 6.54952 8.44941 6.7511 9.46282C6.95268 10.4762 7.45025 11.4071 8.18088 12.1377C8.91151 12.8684 9.84239 13.3659 10.8558 13.5675C11.8692 13.7691 12.9196 13.6656 13.8743 13.2702C14.8289 12.8748 15.6448 12.2052 16.2188 11.3461C16.7929 10.4869 17.0993 9.47688 17.0993 8.44361C17.0993 7.05804 16.5489 5.72923 15.5691 4.74948C14.5894 3.76974 13.2606 3.21932 11.875 3.21932Z" fill="black"/>
</svg>
