<svg width="28" height="32" viewBox="0 0 28 32" fill="none" xmlns="http://www.w3.org/2000/svg">
<path d="M13.9093 31.7079L13.447 31.5028C12.9324 31.2769 0.916504 25.8502 0.916504 16.0233V7.50248C0.916962 6.68249 1.17613 5.88354 1.6571 5.21943C2.13807 4.55531 2.81632 4.05988 3.59526 3.80368L13.9772 0.362183L24.3592 3.80368C25.1381 4.05988 25.8164 4.55531 26.2973 5.21943C26.7783 5.88354 27.0375 6.68249 27.0379 7.50248V16.0233C27.0379 27.2255 14.9071 31.3762 14.3899 31.5486L13.9093 31.7079ZM13.9772 3.10101L4.422 6.26954C4.16202 6.35446 3.93558 6.51947 3.77511 6.74094C3.61464 6.96241 3.52836 7.22898 3.52865 7.50248V16.0233C3.52865 23.1988 11.9397 27.8537 14.0386 28.9025C16.1335 28.06 24.4258 24.2032 24.4258 16.0233V7.50248C24.4261 7.22898 24.3398 6.96241 24.1793 6.74094C24.0189 6.51947 23.7924 6.35446 23.5324 6.26954L13.9772 3.10101Z" fill="black"/>
<path d="M12.816 19.3434H12.7729C12.4423 19.3384 12.1162 19.2663 11.8142 19.1316C11.5123 18.9969 11.2408 18.8024 11.0162 18.5598L8.00439 15.4252L9.88644 13.6202L12.8173 16.6764L19.584 9.90967L21.4308 11.7565L14.5596 18.6277C14.3307 18.8564 14.0588 19.0374 13.7595 19.1602C13.4602 19.2831 13.1395 19.3453 12.816 19.3434Z" fill="black"/>
</svg>
