<svg width="27" height="32" viewBox="0 0 27 32" fill="none" xmlns="http://www.w3.org/2000/svg">
<path d="M12.9928 31.3457L12.5304 31.1407C12.0159 30.9147 0 25.488 0 15.6611V7.14029C0.000458102 6.3203 0.259625 5.52136 0.740595 4.85724C1.22156 4.19313 1.89981 3.69769 2.67875 3.4415L13.0607 0L23.4427 3.4415C24.2216 3.69769 24.8999 4.19313 25.3808 4.85724C25.8618 5.52136 26.121 6.3203 26.1214 7.14029V15.6611C26.1214 26.8633 13.9906 31.014 13.4734 31.1864L12.9928 31.3457ZM13.0607 2.73883L3.5055 5.90736C3.24552 5.99228 3.01908 6.15729 2.8586 6.37876C2.69813 6.60023 2.61186 6.8668 2.61214 7.14029V15.6611C2.61214 22.8367 11.0232 27.4915 13.1221 28.5403C15.217 27.6979 23.5093 23.841 23.5093 15.6611V7.14029C23.5096 6.8668 23.4233 6.60023 23.2628 6.37876C23.1024 6.15729 22.8759 5.99228 22.6159 5.90736L13.0607 2.73883Z" fill="black"/>
<path d="M11.8995 18.9812H11.8564C11.5258 18.9762 11.1997 18.9041 10.8977 18.7694C10.5958 18.6347 10.3243 18.4402 10.0997 18.1976L7.08789 15.063L8.96994 13.258L11.9008 16.3142L18.6675 9.54749L20.5143 11.3943L13.6431 18.2655C13.4142 18.4942 13.1423 18.6752 12.843 18.798C12.5437 18.9209 12.223 18.9832 11.8995 18.9812Z" fill="black"/>
</svg>
