<svg width="18" height="21" viewBox="0 0 18 21" fill="none" xmlns="http://www.w3.org/2000/svg">
<path d="M2.41138 14.7255L0.0354176 2.99395C-0.0897236 2.24654 0.120274 1.48712 0.609695 0.909415C1.09912 0.331709 1.81482 0 2.57252 0H14.1429C16.2695 0 18 1.73055 18 3.85708V8.99986C18 11.1264 16.2695 12.8569 14.1429 12.8569H13.7144V14.6801C15.1912 15.0615 16.2857 16.4055 16.2857 17.9997C16.2857 19.4174 15.132 20.5711 13.7144 20.5711H2.57166C1.15397 20.5711 0.000274658 19.4174 0.000274658 17.9997C0.000274658 16.4629 1.01597 15.1592 2.41138 14.7255ZM14.1429 11.1427C15.324 11.1427 16.2857 10.181 16.2857 8.99986V3.85708C16.2857 2.67596 15.324 1.71426 14.1429 1.71426H13.7144V11.1427H14.1429ZM10.2858 11.1427H12.0001V9.42843H10.2858C9.8127 9.42843 9.4287 9.04443 9.4287 8.5713C9.4287 8.09816 9.8127 7.71417 10.2858 7.71417H12.0001V5.99991H10.2858C9.8127 5.99991 9.4287 5.61591 9.4287 5.14278C9.4287 4.66964 9.8127 4.28565 10.2858 4.28565H12.0001V1.71426H2.57252C2.31624 1.71426 2.08396 1.8214 1.91767 2.01768C1.75225 2.21311 1.68453 2.45996 1.72139 2.68282L4.12993 14.5712H12.0001V12.8569H10.2858C9.8127 12.8569 9.4287 12.473 9.4287 11.9998C9.4287 11.5267 9.8127 11.1427 10.2858 11.1427ZM2.57166 18.8569H13.7144C14.1866 18.8569 14.5715 18.472 14.5715 17.9997C14.5715 17.0543 13.8026 16.2855 12.8572 16.2855H3.42879C2.48338 16.2855 1.71453 17.0543 1.71453 17.9997C1.71453 18.472 2.09853 18.8569 2.57166 18.8569Z" fill="#183153"/>
</svg>
