<svg width="23" height="28" viewBox="0 0 23 28" fill="none" xmlns="http://www.w3.org/2000/svg">
<path d="M20.5 26H18.5V20.957C18.4992 20.173 18.1874 19.4213 17.633 18.867C17.0787 18.3126 16.327 18.0008 15.543 18H7.457C6.673 18.0008 5.92134 18.3126 5.36696 18.867C4.81259 19.4213 4.50079 20.173 4.5 20.957V26H2.5V20.957C2.50159 19.6428 3.02435 18.3829 3.95363 17.4536C4.8829 16.5244 6.14281 16.0016 7.457 16H15.543C16.8572 16.0016 18.1171 16.5244 19.0464 17.4536C19.9756 18.3829 20.4984 19.6428 20.5 20.957V26Z" fill="url(#paint0_linear_2515_5405)"/>
<path d="M11.5 14C10.3133 14 9.15328 13.6481 8.16658 12.9888C7.17989 12.3295 6.41085 11.3925 5.95673 10.2961C5.5026 9.19975 5.38378 7.99335 5.61529 6.82946C5.8468 5.66558 6.41825 4.59648 7.25736 3.75736C8.09648 2.91825 9.16558 2.3468 10.3295 2.11529C11.4933 1.88378 12.6997 2.0026 13.7961 2.45673C14.8925 2.91085 15.8295 3.67989 16.4888 4.66658C17.1481 5.65328 17.5 6.81331 17.5 8C17.4984 9.59081 16.8658 11.116 15.7409 12.2409C14.616 13.3658 13.0908 13.9984 11.5 14ZM11.5 4C10.7089 4 9.93552 4.2346 9.27772 4.67412C8.61993 5.11365 8.10723 5.73836 7.80448 6.46927C7.50173 7.20017 7.42252 8.00444 7.57686 8.78036C7.7312 9.55629 8.11217 10.269 8.67158 10.8284C9.23099 11.3878 9.94372 11.7688 10.7196 11.9231C11.4956 12.0775 12.2998 11.9983 13.0307 11.6955C13.7616 11.3928 14.3864 10.8801 14.8259 10.2223C15.2654 9.56449 15.5 8.79113 15.5 8C15.5 6.93914 15.0786 5.92172 14.3284 5.17158C13.5783 4.42143 12.5609 4 11.5 4Z" fill="url(#paint1_linear_2515_5405)"/>
<defs>
<linearGradient id="paint0_linear_2515_5405" x1="11.5" y1="16" x2="11.5" y2="26" gradientUnits="userSpaceOnUse">
<stop stop-color="#007AFF"/>
<stop offset="1" stop-color="#007AFF" stop-opacity="0.73"/>
</linearGradient>
<linearGradient id="paint1_linear_2515_5405" x1="11.5" y1="2" x2="11.5" y2="14" gradientUnits="userSpaceOnUse">
<stop stop-color="#007AFF"/>
<stop offset="1" stop-color="#007AFF" stop-opacity="0.73"/>
</linearGradient>
</defs>
</svg>
