<svg width="14" height="14" viewBox="0 0 14 14" fill="none" xmlns="http://www.w3.org/2000/svg">
<path d="M7.00001 1.16686C8.56293 1.172 10.0589 1.80212 11.1544 2.9168H9.33326C9.01111 2.9168 8.74996 3.17795 8.74996 3.50011C8.74996 3.82226 9.01111 4.08342 9.33326 4.08342H11.7499C12.348 4.08309 12.8328 3.5983 12.8332 3.0002V0.583524C12.8332 0.26137 12.572 0.000218393 12.2498 0.000218393C11.9277 0.000218393 11.6665 0.26137 11.6665 0.583524V1.79566C8.79846 -0.787339 4.3795 -0.556237 1.7965 2.31184C0.785656 3.43427 0.165656 4.85399 0.0294059 6.35834C-0.000561927 6.68137 0.237021 6.96752 0.56005 6.99748C0.577549 6.9991 0.59513 6.99995 0.612739 7C0.908398 7.00377 1.15834 6.78189 1.18965 6.48784C1.45876 3.47837 3.97854 1.17082 7.00001 1.16686Z" fill="black"/>
<path d="M13.3879 7.00005C13.0922 6.99627 12.8423 7.21816 12.811 7.51221C12.5326 10.7172 9.70882 13.0897 6.50382 12.8113C5.11713 12.6908 3.8194 12.0778 2.84564 11.0832H4.66676C4.98891 11.0832 5.25007 10.8221 5.25007 10.4999C5.25007 10.1778 4.98891 9.91663 4.66676 9.91663H2.25009C1.65215 9.9163 1.1672 10.4008 1.16687 10.9987C1.16687 10.9991 1.16687 10.9994 1.16687 10.9998V13.4165C1.16687 13.7387 1.42802 13.9998 1.75018 13.9998C2.07233 13.9998 2.33348 13.7387 2.33348 13.4165V12.2044C5.20156 14.7874 9.6205 14.5563 12.2035 11.6882C13.2144 10.5658 13.8344 9.14605 13.9706 7.64168C14.0006 7.31865 13.763 7.0325 13.44 7.00254C13.4227 7.00095 13.4053 7.0001 13.3879 7.00005Z" fill="black"/>
</svg>
