<svg width="27" height="28" viewBox="0 0 27 28" fill="none" xmlns="http://www.w3.org/2000/svg">
<path d="M21.4184 25.9983C21.0484 25.9973 20.6824 25.923 20.3413 25.7796C20.0003 25.6363 19.691 25.4268 19.4314 25.1633L13.2814 19.0493L7.13137 25.1673C6.7364 25.568 6.22986 25.8405 5.67779 25.9491C5.12572 26.0577 4.55372 25.9975 4.03637 25.7763C3.51389 25.5661 3.06692 25.2033 2.75383 24.7352C2.44074 24.2671 2.27609 23.7154 2.28137 23.1523V6.99829C2.28137 5.67221 2.80816 4.40044 3.74584 3.46276C4.68352 2.52508 5.95529 1.99829 7.28137 1.99829L19.2814 1.99829C19.938 1.99829 20.5882 2.12762 21.1948 2.37889C21.8014 2.63017 22.3526 2.99846 22.8169 3.46276C23.2812 3.92705 23.6495 4.47825 23.9008 5.08487C24.152 5.6915 24.2814 6.34168 24.2814 6.99829V23.1523C24.287 23.715 24.1229 24.2663 23.8106 24.7343C23.4982 25.2024 23.0521 25.5655 22.5304 25.7763C22.1782 25.9236 21.8001 25.9991 21.4184 25.9983ZM7.28137 3.99829C6.48572 3.99829 5.72266 4.31436 5.16005 4.87697C4.59744 5.43958 4.28137 6.20264 4.28137 6.99829V23.1523C4.28101 23.3189 4.33004 23.4819 4.42227 23.6207C4.5145 23.7595 4.6458 23.8678 4.79956 23.932C4.95333 23.9962 5.12268 24.0134 5.28621 23.9814C5.44975 23.9494 5.60013 23.8697 5.71837 23.7523L12.5814 16.9313C12.7687 16.745 13.0222 16.6405 13.2864 16.6405C13.5506 16.6405 13.804 16.745 13.9914 16.9313L20.8464 23.7503C20.9646 23.8677 21.115 23.9474 21.2785 23.9794C21.4421 24.0114 21.6114 23.9942 21.7652 23.93C21.919 23.8658 22.0502 23.7575 22.1425 23.6187C22.2347 23.4799 22.2837 23.3169 22.2834 23.1503V6.99829C22.2834 6.20264 21.9673 5.43958 21.4047 4.87697C20.8421 4.31436 20.079 3.99829 19.2834 3.99829H7.28137Z" fill="url(#paint0_linear_2515_5404)"/>
<defs>
<linearGradient id="paint0_linear_2515_5404" x1="13.2814" y1="1.99829" x2="13.2814" y2="26.0018" gradientUnits="userSpaceOnUse">
<stop stop-color="#007AFF"/>
<stop offset="1" stop-color="#007AFF" stop-opacity="0.73"/>
</linearGradient>
</defs>
</svg>
