<svg width="29" height="29" viewBox="0 0 29 29" fill="none" xmlns="http://www.w3.org/2000/svg">
<path d="M25.739 24.325L19.77 18.356C21.3966 16.3666 22.1964 13.8281 22.0039 11.2656C21.8113 8.70304 20.6412 6.31254 18.7356 4.58853C16.83 2.86452 14.3346 1.9389 11.7657 2.00313C9.1967 2.06736 6.75071 3.11653 4.93362 4.93362C3.11653 6.75071 2.06736 9.1967 2.00313 11.7657C1.9389 14.3346 2.86452 16.83 4.58853 18.7356C6.31254 20.6412 8.70304 21.8113 11.2656 22.0039C13.8281 22.1964 16.3666 21.3966 18.356 19.77L24.325 25.739C24.5136 25.9212 24.7662 26.022 25.0284 26.0197C25.2906 26.0174 25.5414 25.9122 25.7268 25.7268C25.9122 25.5414 26.0174 25.2906 26.0197 25.0284C26.022 24.7662 25.9212 24.5136 25.739 24.325ZM12.032 20.032C10.4498 20.032 8.90304 19.5628 7.58745 18.6838C6.27185 17.8047 5.24647 16.5553 4.64097 15.0935C4.03547 13.6317 3.87704 12.0231 4.18573 10.4713C4.49441 8.91944 5.25633 7.49397 6.37515 6.37515C7.49397 5.25633 8.91944 4.49441 10.4713 4.18573C12.0231 3.87704 13.6317 4.03547 15.0935 4.64097C16.5553 5.24647 17.8047 6.27185 18.6838 7.58745C19.5628 8.90304 20.032 10.4498 20.032 12.032C20.0296 14.153 19.186 16.1865 17.6862 17.6862C16.1865 19.186 14.153 20.0296 12.032 20.032Z" fill="url(#paint0_linear_4649_2536)"/>
<defs>
<linearGradient id="paint0_linear_4649_2536" x1="14.0099" y1="2" x2="14.0099" y2="26.0197" gradientUnits="userSpaceOnUse">
<stop stop-color="#183153"/>
<stop offset="1" stop-color="#183153" stop-opacity="0.83"/>
</linearGradient>
</defs>
</svg>
