<svg width="22" height="28" viewBox="0 0 22 28" fill="none" xmlns="http://www.w3.org/2000/svg">
<path d="M20 26H18V20.957C17.9992 20.173 17.6874 19.4213 17.133 18.867C16.5787 18.3126 15.827 18.0008 15.043 18H6.957C6.173 18.0008 5.42134 18.3126 4.86696 18.867C4.31259 19.4213 4.00079 20.173 4 20.957V26H2V20.957C2.00159 19.6428 2.52435 18.3829 3.45363 17.4536C4.3829 16.5244 5.64281 16.0016 6.957 16H15.043C16.3572 16.0016 17.6171 16.5244 18.5464 17.4536C19.4756 18.3829 19.9984 19.6428 20 20.957V26Z" fill="url(#paint0_linear_2168_3620)"/>
<path d="M11 14C9.81331 14 8.65328 13.6481 7.66658 12.9888C6.67989 12.3295 5.91085 11.3925 5.45673 10.2961C5.0026 9.19975 4.88378 7.99335 5.11529 6.82946C5.3468 5.66558 5.91825 4.59648 6.75736 3.75736C7.59648 2.91825 8.66558 2.3468 9.82946 2.11529C10.9933 1.88378 12.1997 2.0026 13.2961 2.45673C14.3925 2.91085 15.3295 3.67989 15.9888 4.66658C16.6481 5.65328 17 6.81331 17 8C16.9984 9.59081 16.3658 11.116 15.2409 12.2409C14.116 13.3658 12.5908 13.9984 11 14ZM11 4C10.2089 4 9.43552 4.2346 8.77772 4.67412C8.11993 5.11365 7.60723 5.73836 7.30448 6.46927C7.00173 7.20017 6.92252 8.00444 7.07686 8.78036C7.2312 9.55629 7.61217 10.269 8.17158 10.8284C8.73099 11.3878 9.44372 11.7688 10.2196 11.9231C10.9956 12.0775 11.7998 11.9983 12.5307 11.6955C13.2616 11.3928 13.8864 10.8801 14.3259 10.2223C14.7654 9.56449 15 8.79113 15 8C15 6.93914 14.5786 5.92172 13.8284 5.17158C13.0783 4.42143 12.0609 4 11 4Z" fill="url(#paint1_linear_2168_3620)"/>
<defs>
<linearGradient id="paint0_linear_2168_3620" x1="11" y1="16" x2="11" y2="26" gradientUnits="userSpaceOnUse">
<stop stop-color="#183153"/>
<stop offset="1" stop-color="#183153" stop-opacity="0.83"/>
</linearGradient>
<linearGradient id="paint1_linear_2168_3620" x1="11" y1="2" x2="11" y2="14" gradientUnits="userSpaceOnUse">
<stop stop-color="#183153"/>
<stop offset="1" stop-color="#183153" stop-opacity="0.83"/>
</linearGradient>
</defs>
</svg>
