<svg width="26" height="28" viewBox="0 0 26 28" fill="none" xmlns="http://www.w3.org/2000/svg">
<path d="M21.1371 26C20.7672 25.999 20.4011 25.9247 20.0601 25.7813C19.719 25.638 19.4097 25.4285 19.1501 25.165L13.0001 19.051L6.85012 25.169C6.45515 25.5697 5.94861 25.8422 5.39654 25.9508C4.84447 26.0594 4.27247 25.9992 3.75512 25.778C3.23264 25.5678 2.78567 25.205 2.47258 24.7369C2.15949 24.2688 1.99484 23.7171 2.00012 23.154V7C2.00012 5.67392 2.52691 4.40215 3.46459 3.46447C4.40227 2.52678 5.67404 2 7.00012 2L19.0001 2C19.6567 2 20.3069 2.12933 20.9135 2.3806C21.5202 2.63188 22.0714 3.00017 22.5357 3.46447C23 3.92876 23.3683 4.47996 23.6195 5.08658C23.8708 5.69321 24.0001 6.34339 24.0001 7V23.154C24.0057 23.7167 23.8417 24.268 23.5293 24.7361C23.217 25.2041 22.7709 25.5672 22.2491 25.778C21.8969 25.9253 21.5189 26.0008 21.1371 26ZM7.00012 4C6.20447 4 5.44141 4.31607 4.8788 4.87868C4.31619 5.44129 4.00012 6.20435 4.00012 7V23.154C3.99976 23.3206 4.04879 23.4836 4.14102 23.6224C4.23325 23.7612 4.36455 23.8695 4.51831 23.9337C4.67208 23.9979 4.84143 24.0151 5.00496 23.9831C5.1685 23.9512 5.31888 23.8714 5.43712 23.754L12.3001 16.933C12.4875 16.7468 12.7409 16.6422 13.0051 16.6422C13.2693 16.6422 13.5228 16.7468 13.7101 16.933L20.5651 23.752C20.6834 23.8694 20.8338 23.9492 20.9973 23.9811C21.1608 24.0131 21.3302 23.9959 21.4839 23.9317C21.6377 23.8675 21.769 23.7592 21.8612 23.6204C21.9535 23.4816 22.0025 23.3186 22.0021 23.152V7C22.0021 6.20435 21.6861 5.44129 21.1234 4.87868C20.5608 4.31607 19.7978 4 19.0021 4H7.00012Z" fill="url(#paint0_linear_2168_3619)"/>
<defs>
<linearGradient id="paint0_linear_2168_3619" x1="13.0001" y1="2" x2="13.0001" y2="26.0035" gradientUnits="userSpaceOnUse">
<stop stop-color="#183153"/>
<stop offset="1" stop-color="#183153" stop-opacity="0.83"/>
</linearGradient>
</defs>
</svg>
