<svg width="27" height="28" viewBox="0 0 27 28" fill="none" xmlns="http://www.w3.org/2000/svg">
<path d="M24.7653 18.2041L22.1653 8.83308C21.6101 6.8285 20.4003 5.06722 18.7285 3.82957C17.0568 2.59191 15.0191 1.949 12.9397 2.00316C10.8604 2.05732 8.85892 2.80544 7.25385 4.12844C5.64878 5.45145 4.53235 7.27331 4.08226 9.30408L2.07126 18.3541C1.97396 18.7925 1.97633 19.2472 2.07821 19.6846C2.18009 20.122 2.37887 20.531 2.6599 20.8813C2.94092 21.2316 3.29702 21.5144 3.70191 21.7087C4.1068 21.903 4.55015 22.004 4.99926 22.0041H8.60626C8.83578 23.1344 9.44899 24.1506 10.342 24.8805C11.235 25.6104 12.3529 26.0091 13.5063 26.0091C14.6596 26.0091 15.7775 25.6104 16.6705 24.8805C17.5635 24.1506 18.1767 23.1344 18.4063 22.0041H21.8763C22.3384 22.0039 22.7942 21.8969 23.2081 21.6915C23.6221 21.4862 23.983 21.1879 24.2628 20.8201C24.5425 20.4523 24.7335 20.0248 24.8208 19.5711C24.9082 19.1173 24.8885 18.6495 24.7653 18.2041ZM13.5063 24.0041C12.888 24.0015 12.2856 23.808 11.7816 23.45C11.2775 23.092 10.8963 22.587 10.6903 22.0041H16.3223C16.1162 22.587 15.735 23.092 15.231 23.45C14.7269 23.808 14.1245 24.0015 13.5063 24.0041ZM22.6713 19.6091C22.578 19.7328 22.457 19.8329 22.3181 19.9015C22.1792 19.9701 22.0262 20.0052 21.8713 20.0041H4.99926C4.84952 20.0041 4.7017 19.9704 4.56671 19.9056C4.43172 19.8408 4.313 19.7465 4.21932 19.6297C4.12564 19.5129 4.05938 19.3765 4.02545 19.2307C3.99152 19.0849 3.99077 18.9333 4.02326 18.7871L6.03426 9.73708C6.38862 8.14329 7.26557 6.71368 8.52572 5.67553C9.78587 4.63737 11.3569 4.05025 12.989 4.00749C14.6212 3.96473 16.2208 4.4688 17.5336 5.43955C18.8463 6.4103 19.7969 7.79203 20.2343 9.36508L22.8343 18.7361C22.8767 18.8843 22.8841 19.0403 22.8558 19.1918C22.8275 19.3433 22.7643 19.4862 22.6713 19.6091Z" fill="url(#paint0_linear_2168_3618)"/>
<defs>
<linearGradient id="paint0_linear_2168_3618" x1="13.4374" y1="2" x2="13.4374" y2="26.0091" gradientUnits="userSpaceOnUse">
<stop stop-color="#183153"/>
<stop offset="1" stop-color="#183153" stop-opacity="0.83"/>
</linearGradient>
</defs>
</svg>
