<svg width="33" height="33" viewBox="0 0 33 33" fill="none" xmlns="http://www.w3.org/2000/svg">
<path d="M27.739 26.325L21.77 20.356C23.3966 18.3666 24.1964 15.8281 24.0039 13.2656C23.8113 10.703 22.6412 8.31254 20.7356 6.58853C18.83 4.86452 16.3346 3.9389 13.7657 4.00313C11.1967 4.06736 8.75071 5.11653 6.93362 6.93362C5.11653 8.75071 4.06736 11.1967 4.00313 13.7657C3.9389 16.3346 4.86452 18.83 6.58853 20.7356C8.31254 22.6412 10.703 23.8113 13.2656 24.0039C15.8281 24.1964 18.3666 23.3966 20.356 21.77L26.325 27.739C26.5136 27.9212 26.7662 28.022 27.0284 28.0197C27.2906 28.0174 27.5414 27.9122 27.7268 27.7268C27.9122 27.5414 28.0174 27.2906 28.0197 27.0284C28.022 26.7662 27.9212 26.5136 27.739 26.325ZM14.032 22.032C12.4498 22.032 10.903 21.5628 9.58745 20.6838C8.27185 19.8047 7.24647 18.5553 6.64097 17.0935C6.03547 15.6317 5.87704 14.0231 6.18573 12.4713C6.49441 10.9194 7.25633 9.49397 8.37515 8.37515C9.49397 7.25633 10.9194 6.49441 12.4713 6.18573C14.0231 5.87704 15.6317 6.03547 17.0935 6.64097C18.5553 7.24647 19.8047 8.27185 20.6838 9.58745C21.5628 10.903 22.032 12.4498 22.032 14.032C22.0296 16.153 21.186 18.1865 19.6862 19.6862C18.1865 21.186 16.153 22.0296 14.032 22.032Z" fill="url(#paint0_linear_2168_3617)"/>
<defs>
<linearGradient id="paint0_linear_2168_3617" x1="16.0099" y1="4" x2="16.0099" y2="28.0197" gradientUnits="userSpaceOnUse">
<stop stop-color="#183153"/>
<stop offset="1" stop-color="#183153" stop-opacity="0.83"/>
</linearGradient>
</defs>
</svg>
